<?xml version="1.0" encoding="iso-8859-1"?>
<!-- Generator: Adobe Illustrator 19.0.0, SVG Export Plug-In . SVG Version: 6.00 Build 0)  -->
<svg version="1.1" id="Layer_1" xmlns="http://www.w3.org/2000/svg" xmlns:xlink="http://www.w3.org/1999/xlink" x="0px" y="0px"
	 viewBox="0 0 503.467 503.467" style="enable-background:new 0 0 503.467 503.467;" xml:space="preserve">
<g transform="translate(7 7)">
	<path style="fill:#50DD8E;" d="M288.253,412.84c7.68,7.68,14.507,22.187,7.68,29.013c-7.68,7.68-22.187,7.68-29.013,0
		C255.827,431.613,281.427,405.16,288.253,412.84z M278.867,492.2c-23.893,0-51.2-5.973-51.2-5.973
		c-93.013-23.04-162.133-106.667-162.133-207.36c0-8.533,0-16.213,1.707-24.747l0,0c27.307-0.853,59.733,4.267,49.493,13.653
		c-14.507,14.507-7.68,73.387,22.187,51.2c29.867-22.187,44.373-51.2,36.693-73.387c-7.68-22.187,51.2-29.013,51.2,7.68
		s-14.507,29.013-22.187,51.2c-7.68,22.187,7.68,22.187,14.507,29.867c7.68,7.68,29.013,22.187,7.68,73.387
		C210.6,446.12,250.707,474.28,278.867,492.2z M484.52,223.4L484.52,223.4L484.52,223.4c-27.307,11.947-70.827,17.067-81.067,11.947
		c-14.507-7.68-14.507-44.373-40.96-45.227c-10.24,0-22.187,44.373-36.693,51.2c-14.507,7.68-22.187-22.187-36.693-44.373
		s22.187-44.373,36.693-44.373s14.507-36.693,14.507-44.373c0-7.68-14.507-16.213-10.24-36.693l0,0
		c16.213,3.413,28.16,9.387,28.16,9.387C420.52,106.493,467.453,158.547,484.52,223.4z M425.64,293.374
		c14.507,14.507-14.507,22.187-22.187,44.373c-7.68,22.187-36.693,22.187-44.373,14.507c-7.68-7.68-22.187-14.507-36.693-22.187
		c-14.507-7.68,0-22.187,14.507-14.507c14.507,7.68,20.48-22.187,36.693-22.187C382.12,293.374,411.133,278.867,425.64,293.374z"/>
	<path style="fill:#80D6FA;" d="M295.933,441.854c7.68-7.68,0-22.187-7.68-29.013c-7.68-7.68-32.427,18.773-22.187,29.013
		C273.747,449.534,288.253,449.534,295.933,441.854 M403.453,337.747c7.68-22.187,36.693-29.867,22.187-44.373
		c-14.507-14.507-44.373,0-51.2,0c-16.213,0-22.187,29.013-36.693,22.187c-14.507-7.68-29.013,7.68-14.507,14.507
		c14.507,7.68,29.013,14.507,36.693,22.187C366.76,359.934,396.627,359.934,403.453,337.747 M167.933,108.2
		c0-3.413,0-7.68-0.853-11.093c18.773-11.947,40.107-20.48,62.293-25.6l0,0c15.36-4.267,39.253-5.973,49.493-5.973
		c17.92,0,35.84,2.56,52.053,6.827l0,0c-4.267,20.48,10.24,29.013,10.24,36.693s0,44.373-14.507,44.373
		c-14.507,0-51.2,22.187-36.693,44.373c14.507,22.187,22.187,51.2,36.693,44.373c14.507-7.68,26.453-52.053,36.693-51.2
		c25.6,0.853,25.6,38.4,40.96,45.227c10.24,5.12,53.76,0,80.213-11.947v0.853c3.413,11.947,5.12,25.6,5.12,25.6
		c1.707,9.387,1.707,19.627,1.707,29.867c0,117.76-95.573,213.333-213.333,213.333c-28.16-17.92-68.267-46.08-51.2-84.48
		c22.187-51.2,0-66.56-7.68-73.387c-7.68-7.68-22.187-7.68-14.507-29.867c7.68-22.187,22.187-14.507,22.187-51.2
		s-58.88-29.013-51.2-7.68c7.68,22.187-7.68,51.2-36.693,73.387s-36.693-36.693-22.187-51.2c10.24-10.24-22.187-15.36-49.493-13.653
		v-2.56c4.267-30.72,14.507-59.733,29.867-84.48c3.413,0.853,6.827,0.853,11.093,0.853C141.48,167.934,167.933,141.48,167.933,108.2
		"/>
	<path style="fill:#ECF4F7;" d="M108.2,167.934c-33.28,0-59.733-26.453-59.733-59.733S74.92,48.467,108.2,48.467
		s59.733,26.453,59.733,59.733S141.48,167.934,108.2,167.934"/>
</g>
<path style="fill:#51565F;" d="M285.867,503.467c-0.853,0-1.707,0-2.56-0.853c-21.333-13.653-72.533-45.227-52.907-89.6
	c19.627-45.227,3.413-58.88-4.267-66.56c-0.853-0.853-1.707-1.707-1.707-1.707c-1.707-1.707-3.413-2.56-5.973-4.267
	c-6.827-4.267-17.067-10.24-10.24-29.867c3.413-9.387,7.68-13.653,11.093-17.92c5.973-5.973,10.24-11.093,10.24-31.573
	c0-11.093-6.827-16.213-11.947-18.773c-10.24-4.267-23.893-2.56-29.013,2.56c-3.413,2.56-2.56,5.973-2.56,7.68
	c7.68,23.893-7.68,55.467-38.4,78.507c-14.507,11.093-23.893,3.413-27.307-0.853c-11.093-13.653-11.947-46.08,0-57.173
	c0.853-0.853,0.853-0.853,0.853-0.853c-1.707-2.56-20.48-6.827-43.52-5.973c-0.853,6.827-0.853,13.653-0.853,20.48
	c0,96.427,64.853,180.053,158.72,203.093c2.56,0.853,3.413,2.56,3.413,5.12c-0.853,2.56-2.56,3.413-5.12,3.413
	c-97.28-23.893-165.547-110.933-165.547-211.627c0-9.387,0.853-17.067,1.707-25.6v-0.853c0-0.853,0.853-0.853,0.853-1.707
	c0.853-0.853,0.853-0.853,1.707-0.853l0,0l0,0h0.853c2.56,0,49.493-1.707,55.467,11.947c0.853,1.707,1.707,5.12-2.56,9.387
	c-8.533,8.533-7.68,35.84,0.853,46.08c2.56,2.56,6.827,5.973,16.213-0.853c28.16-20.48,41.813-48.64,34.987-69.12
	c-1.707-5.973-0.853-11.947,4.267-16.213c8.533-7.68,25.6-9.387,38.4-4.267c11.093,5.12,17.067,14.507,17.067,26.453
	c0,24.747-6.827,31.573-12.8,37.547c-3.413,3.413-6.827,7.68-9.387,15.36c-4.267,13.653,0,16.213,6.827,19.627
	c2.56,1.707,5.12,3.413,6.827,5.12c0.853,0.853,0.853,0.853,1.707,1.707c9.387,8.533,28.16,26.453,6.827,76.8
	c-13.653,32.427,16.213,58.027,48.64,78.507c114.347-0.853,208.213-93.867,208.213-209.067c0-9.387-0.853-19.627-1.707-29.013
	c0-2.56,1.707-4.267,3.413-5.12c2.56,0,4.267,1.707,5.12,3.413c1.707,10.24,1.707,20.48,1.707,29.867
	C503.467,406.187,406.187,503.467,285.867,503.467z M288.427,459.093c-6.827,0-13.653-2.56-17.92-6.827
	c-3.413-3.413-4.267-8.533-3.413-14.507c2.56-10.24,12.8-21.333,21.333-23.04c5.12-1.707,8.533,0.853,9.387,1.707
	c8.533,8.533,17.067,25.6,7.68,35.84l0,0C301.227,456.534,295.253,459.093,288.427,459.093z M291.84,422.4
	c-1.707,0-8.533,3.413-12.8,11.093c-2.56,4.267-5.12,10.24-2.56,12.8c5.973,5.973,17.92,5.973,23.04,0
	C304.64,441.174,298.667,429.227,291.84,422.4C292.693,422.4,292.693,422.4,291.84,422.4z M381.44,367.787
	c-7.68,0-14.507-1.707-17.92-5.973c-6.827-6.827-21.333-14.507-35.84-21.333c-8.533-4.267-9.387-11.093-7.68-16.213
	c3.413-7.68,14.507-11.093,25.6-5.973c4.267,1.707,6.827,0,13.653-8.533c5.12-6.827,11.947-14.507,21.333-14.507
	c0.853,0,4.267-0.853,7.68-1.707c12.8-3.413,34.133-9.387,46.933,3.413c3.413,3.413,5.12,6.827,5.12,11.093
	c0,6.827-5.12,11.947-11.093,17.92c-5.973,5.12-11.947,11.947-14.507,19.627c-3.413,11.093-11.947,17.92-23.893,21.333
	C388.267,367.787,384.853,367.787,381.44,367.787z M336.213,325.12c-4.267,0-6.827,1.707-7.68,3.413
	c-0.853,1.707,1.707,3.413,3.413,5.12c15.36,7.68,29.867,15.36,37.547,23.04c2.56,2.56,10.24,4.267,19.627,2.56
	c5.12-0.853,14.507-5.12,17.92-15.36c3.413-10.24,11.093-17.92,17.067-23.04c4.267-4.267,8.533-8.533,8.533-11.093
	c0-1.707-0.853-3.413-2.56-5.12c-9.387-9.387-26.453-4.267-38.4-0.853c-4.267,1.707-7.68,2.56-10.24,2.56
	c-5.973,0-10.24,5.12-14.507,11.093c-5.973,6.827-12.8,16.213-23.893,10.24C340.48,325.12,338.773,325.12,336.213,325.12z
	 M328.533,253.44c-10.24,0-17.067-13.653-23.893-27.307c-3.413-6.827-6.827-13.653-11.093-20.48
	c-5.12-7.68-5.12-16.213-0.853-24.747c8.533-15.36,30.72-26.453,40.96-26.453c5.12,0,10.24-10.24,10.24-40.107
	c0-0.853-1.707-3.413-3.413-5.973c-3.413-5.973-9.387-14.507-7.68-27.307c-15.36-3.413-31.573-5.12-47.787-5.12
	c-9.387,0-31.573,2.56-46.933,5.973c-2.56,0.853-4.267-0.853-5.12-3.413c-0.853-2.56,0.853-4.267,3.413-5.12
	c14.507-4.267,37.547-6.827,48.64-6.827c17.92,0,35.84,2.56,53.76,6.827c2.56,0.853,3.413,2.56,3.413,5.12
	c-2.56,11.947,1.707,18.773,5.973,24.747c2.56,3.413,4.267,6.827,4.267,10.24c0,32.427-5.973,48.64-18.773,48.64
	c-8.533,0-27.307,9.387-34.133,21.333c-3.413,5.973-2.56,11.093,0.853,16.213c4.267,6.827,8.533,14.507,11.947,21.333
	c8.533,17.067,13.653,24.747,19.627,22.187c5.973-3.413,12.8-16.213,17.92-27.307c7.68-14.507,11.947-24.747,20.48-24.747
	c17.92,0.853,25.6,16.213,31.573,29.013c3.413,7.68,6.827,14.507,11.093,17.067c7.68,4.267,46.08,0,74.24-10.24
	C469.333,166.4,424.107,116.053,365.226,92.16c-2.56-0.853-3.413-3.413-2.56-5.973c0.853-2.56,3.413-3.413,5.973-2.56
	c62.293,25.6,110.08,79.36,128,144.213v0.853c0,0.853,0,0.853,0,1.707s-0.853,0.853-0.853,1.707l-0.853,0.853
	c-27.307,11.947-72.533,17.92-84.48,11.947c-6.827-3.413-11.093-11.947-15.36-20.48C389.12,212.48,384,201.387,371.2,200.534
	c-2.56,0.853-8.533,12.8-12.8,20.48c-6.827,12.8-13.653,26.453-22.187,30.72C332.8,252.587,331.093,253.44,328.533,253.44z
	 M115.2,230.4c-2.56,0-4.267-1.707-4.267-4.267V179.2C79.36,177.493,53.76,151.893,51.2,119.467H4.267
	C1.707,119.467,0,117.76,0,115.2c0-2.56,1.707-4.267,4.267-4.267H51.2C52.907,79.36,78.507,53.76,110.933,51.2V4.267
	c0-2.56,1.707-4.267,4.267-4.267c2.56,0,4.267,1.707,4.267,4.267V51.2c31.573,1.707,57.173,27.307,59.733,59.733h46.933
	c2.56,0,4.267,1.707,4.267,4.267c0,2.56-1.707,4.267-4.267,4.267H179.2c-1.707,31.573-27.307,57.173-59.733,59.733v46.933
	C119.467,228.693,117.76,230.4,115.2,230.4z M115.2,59.734c-30.72,0-55.467,24.747-55.467,55.467s24.747,55.467,55.467,55.467
	c0,0,0,0,0.853,0c30.72,0,55.467-24.747,55.467-55.467C170.667,84.48,145.92,59.734,115.2,59.734z M81.067,206.507
	c-0.853,0-0.853,0-1.707,0c-25.6-10.24-45.227-29.867-55.467-55.467c-0.853-2.56,0-4.267,2.56-5.12c2.56-0.853,4.267,0,5.12,2.56
	c9.387,23.04,27.307,41.813,50.347,50.347c2.56,0.853,3.413,3.413,2.56,5.12C84.48,205.654,82.773,206.507,81.067,206.507z
	 M149.333,206.507c-1.707,0-3.413-0.853-4.267-2.56c-0.853-2.56,0-4.267,2.56-5.12c23.04-9.387,41.813-27.307,50.347-51.2
	c0.853-2.56,3.413-3.413,5.12-2.56c2.56,0.853,3.413,3.413,2.56,5.12c-10.24,25.6-29.867,46.08-55.467,55.467
	C151.04,206.507,150.187,206.507,149.333,206.507z M115.2,145.067c-16.213,0-29.867-13.653-29.867-29.867
	S98.987,85.334,115.2,85.334s29.867,13.653,29.867,29.867S131.413,145.067,115.2,145.067z M115.2,93.867
	c-11.947,0-21.333,9.387-21.333,21.333s9.387,21.333,21.333,21.333s21.333-9.387,21.333-21.333S127.147,93.867,115.2,93.867z
	 M203.093,85.334c-1.707,0-3.413-0.853-4.267-2.56c-9.387-23.04-27.307-41.813-50.347-51.2c-2.56-0.853-3.413-3.413-2.56-5.12
	c0.853-2.56,3.413-3.413,5.12-2.56c25.6,10.24,45.227,30.72,55.467,55.467c0.853,2.56,0,4.267-2.56,5.12
	C203.947,85.334,203.093,85.334,203.093,85.334z M28.16,85.334c-0.853,0-0.853,0-1.707,0c-2.56-0.853-3.413-3.413-2.56-5.12
	C34.133,55.467,53.76,34.987,79.36,24.747c2.56-0.853,4.267,0,5.12,2.56s0,4.267-2.56,5.12c-23.04,9.387-40.96,27.307-50.347,50.347
	C31.573,83.627,29.867,85.334,28.16,85.334z"/>
<g>
</g>
<g>
</g>
<g>
</g>
<g>
</g>
<g>
</g>
<g>
</g>
<g>
</g>
<g>
</g>
<g>
</g>
<g>
</g>
<g>
</g>
<g>
</g>
<g>
</g>
<g>
</g>
<g>
</g>
</svg>
