<?xml version="1.0" encoding="UTF-8" standalone="no"?>
<!--part of the rodentia icon theme by sixsixfive released under CC0 (https://creativecommons.org/publicdomain/zero/1.0/) on openclipart-->
<svg xmlns="http://www.w3.org/2000/svg" xmlns:xlink="http://www.w3.org/1999/xlink" viewBox="0 0 48 48">
 <defs id="0">
  <linearGradient id="D">
   <stop id="R" stop-color="#2e3436"/>
   <stop id="S" offset="1" stop-color="#babdb6"/>
  </linearGradient>
  <linearGradient id="E">
   <stop id="T" stop-color="#fff"/>
   <stop id="U" offset="1" stop-color="#fff" stop-opacity="0"/>
  </linearGradient>
  <linearGradient id="F">
   <stop id="V" stop-color="#d3d7cf"/>
   <stop id="W" offset="1" stop-color="#eeeeec"/>
  </linearGradient>
  <linearGradient id="G">
   <stop id="X" stop-color="#888a85"/>
   <stop id="Y" offset="1" stop-color="#555753"/>
  </linearGradient>
  <linearGradient id="H">
   <stop id="Z" stop-color="#fff" stop-opacity="0.5"/>
   <stop id="a" offset="1" stop-color="#fff" stop-opacity="0"/>
  </linearGradient>
  <linearGradient id="I">
   <stop id="b" stop-color="#2e3436"/>
   <stop id="c" offset="1" stop-color="#2e3436" stop-opacity="0"/>
  </linearGradient>
  <linearGradient id="J">
   <stop id="d" stop-color="#eee"/>
   <stop id="e" offset="1" stop-color="#dcdcdc"/>
  </linearGradient>
  <radialGradient cx="60.05" cy="51.39" r="15.03" id="K" xlink:href="#J" gradientUnits="userSpaceOnUse" gradientTransform="matrix(-1.404511,1.1888571,-1,-1.1813958,199.73811,11.750541)"/>
  <radialGradient cx="25.02" cy="44.3" r="16.727" id="L" xlink:href="#I" gradientUnits="userSpaceOnUse" gradientTransform="matrix(1,0,0,0.11504424,0,39.202918)"/>
  <linearGradient y1="5.265" x2="0" y2="42.603" id="M" xlink:href="#H" gradientUnits="userSpaceOnUse"/>
  <radialGradient cx="14.11" cy="9.421" r="18.717" id="N" xlink:href="#G" gradientUnits="userSpaceOnUse" gradientTransform="matrix(-0.2428586,0.9818728,-1.9740017,-0.4882539,37.80447,-2.9474876)"/>
  <radialGradient cx="26.805" cy="30.17" r="14.476" id="O" xlink:href="#F" gradientUnits="userSpaceOnUse" gradientTransform="matrix(1.1920545,-1.6715736,2.423437,1.7282329,-79.547739,24.448751)"/>
  <linearGradient x1="9.583" y1="-12.469" x2="26.52" y2="34.548" id="P" xlink:href="#E" gradientUnits="userSpaceOnUse"/>
  <linearGradient y1="8.164" x2="0" y2="39.695" id="Q" xlink:href="#D" gradientUnits="userSpaceOnUse"/>
 </defs>
 <path d="m 41.743937,44.299297 a 16.727181,1.9243659 0 1 1 -33.4543614,0 16.727181,1.9243659 0 1 1 33.4543614,0 z" transform="matrix(1,0,0,1.4615385,-1.0167561,-21.157663)" id="1" opacity="0.6" fill="url(#L)"/>
 <path d="M 44,24 A 20,19.997948 0 1 1 4.0000001,24 20,19.997948 0 1 1 44,24 z" id="2" fill="#2e3436"/>
 <path d="M 22.75,5.375 C 8.615336,5.6267023 0.00192621,23.952757 8.9375,35.0625 L 8.90625,35.09375 C 17.018382,47.079005 37.344698,44.11383 41.5625,30.25 l 0.03125,0 c 0.0076,-0.01959 -0.0075,-0.0429 0,-0.0625 C 46.258402,17.976792 35.858956,4.2337465 22.8125,5.375 c -0.02148,0.00188 -0.041,-0.00196 -0.0625,0 z" id="3" fill="url(#N)"/>
 <path d="m 25.15625,5.78125 c -0.763464,-0.037384 -1.558056,-0.00768 -2.34375,0.0625 -0.01047,9.351e-4 -0.02078,-9.548e-4 -0.03125,0 C 9.0161224,6.0630086 0.55495532,24.017662 9.3125,34.8125 c 7.891282,11.658961 27.769934,8.786369 31.84375,-4.71875 0.0029,-0.0095 -0.0029,-0.02172 0,-0.03125 4.28647,-11.160212 -4.405284,-23.7135002 -16,-24.28125 z" id="4" fill="none" stroke="url(#M)"/>
 <path d="M 22.8125,8.21875 C 11.125694,8.4268622 3.7444384,24.066025 11.15625,33.28125 a 2.8575524,2.8575524 0 0 1 0.25,0.375 c 6.828793,9.769216 23.950856,7.21053 27.4375,-4.25 a 2.8575524,2.8575524 0 0 1 0.09375,-0.25 C 42.841901,18.93566 33.993908,7.2625127 23.0625,8.21875 22.554745,8.263167 22.529685,8.261635 23,8.21875 a 2.8575524,2.8575524 0 0 1 -0.1875,0 z" id="5" fill="url(#Q)"/>
 <path d="m 22.84375,9.59375 c -0.0219,0.00176 -0.04533,0.029986 -0.0625,0.03125 -0.01471,0.00108 -0.07346,-0.00155 -0.09375,0 -0.02104,6.737e-4 -0.04149,-7.88e-4 -0.0625,0 -10.349755,0.388099 -17.0192369,14.590467 -10.40625,22.8125 0.109347,0.138889 0.22144,0.286088 0.3125,0.4375 6.150376,8.798679 21.859313,6.448377 25,-3.875 0.03634,-0.112657 0.07933,-0.234553 0.125,-0.34375 3.535174,-9.254061 -4.562447,-19.9290651 -14.46875,-19.0625 -0.0643,0.00562 -0.106717,-0.00423 -0.15625,0 -0.06926,0.00227 -0.118216,0.00114 -0.1875,0 z" id="6" fill="url(#O)"/>
 <path d="m 24.125,9.5625 c -0.30574,0.00493 -0.627928,0.00417 -0.9375,0.03125 -0.0643,0.00562 -0.106717,-0.00423 -0.15625,0 -0.06926,0.00227 -0.118216,0.00114 -0.1875,0 -0.0219,0.00176 -0.04533,0.029986 -0.0625,0.03125 -0.01471,0.00108 -0.07346,-0.00155 -0.09375,0 -0.02104,6.733e-4 -0.04149,-7.88e-4 -0.0625,0 -3.399684,0.1274826 -6.391087,1.74925 -8.65625,4.15625 l 4.46875,4.4375 c 1.442959,-1.412818 3.416325,-2.28125 5.59375,-2.28125 2.192239,0 4.17953,0.882668 5.625,2.3125 L 34.125,13.78125 c -2.599464,-2.617457 -6.132394,-4.2811602 -10,-4.21875 z" id="7" opacity="0.9" fill="#f57900"/>
 <path d="m 13.90625,13.84375 c -4.5840928,4.927705 -6.1090412,13.096377 -1.6875,18.59375 0.109347,0.138888 0.22144,0.286088 0.3125,0.4375 0.341877,0.489086 0.727855,0.954266 1.125,1.375 l 4.6875,-4.6875 c -1.429941,-1.445495 -2.3125,-3.432646 -2.3125,-5.625 0,-2.191831 0.883161,-4.179591 2.3125,-5.625 l -4.4375,-4.46875 z" id="8" opacity="0.9" fill="#8bb300"/>
 <path d="m 34.1875,13.84375 -4.46875,4.46875 c 1.429823,1.445478 2.3125,3.432748 2.3125,5.625 10e-7,2.184657 -0.891409,4.149543 -2.3125,5.59375 l 4.625,4.625 C 35.783627,32.760532 36.9081,31.048284 37.53125,29 c 0.03634,-0.112656 0.07933,-0.234553 0.125,-0.34375 2.016154,-5.277706 0.260026,-11.014969 -3.46875,-14.8125 z" id="9" opacity="0.9" fill="#c00"/>
 <path d="m 26.455408,23.964804 a 2.0446608,2.002933 0 1 1 -4.089321,0 2.0446608,2.002933 0 1 1 4.089321,0 z" transform="matrix(0.9781549,0,0,0.9985355,0.1610084,-0.00928815)" id="A" fill="#555753"/>
 <rect width="2.837" height="13.187" ry="1.449" x="32.14" y="-6.996" transform="matrix(0.8158612,0.5782478,-0.5782478,0.8158612,0,0)" id="B" fill="#555753" rx="1.418"/>
 <path d="m 24.125,9.53125 c -0.305799,0.00499 -0.627928,0.03542 -0.9375,0.0625 -0.0643,0.00562 -0.106717,-0.00423 -0.15625,0 -0.06926,0.00227 -0.118216,0.00114 -0.1875,0 -0.0219,0.00176 -0.04533,0.029986 -0.0625,0.03125 -0.01471,0.00108 -0.07346,-0.00155 -0.09375,0 -0.02104,6.737e-4 -0.04149,-7.88e-4 -0.0625,0 C 14.948836,9.9128437 9.3034647,17.808783 9.59375,25.21875 18.476043,22.337323 28.266792,19.611492 36.9375,17.65625 34.535186,12.94984 29.678686,9.4405755 24.125,9.53125 z" id="C" opacity="0.6" fill="url(#P)"/>
</svg>
